<?xml version="1.0" encoding="iso-8859-1"?>
<!-- Uploaded to: SVG Repo, www.svgrepo.com, Generator: SVG Repo Mixer Tools -->
<svg height="800px" width="800px" version="1.1" id="Layer_1" xmlns="http://www.w3.org/2000/svg" xmlns:xlink="http://www.w3.org/1999/xlink" 
	 viewBox="0 0 512 512" xml:space="preserve">
<polygon style="fill:#E43138;" points="512,260.5 367.951,239.586 388.866,482.525 388.866,482.527 512,482.527 "/>
<polygon style="fill:#F25F67;" points="327.435,198.381 348.35,441.321 388.866,482.525 388.866,239.586 "/>
<polygon style="fill:#D9000C;" points="512,260.5 450.434,197.886 348.35,197.886 327.435,198.381 388.866,260.5 "/>
<polygon style="fill:#8BCBF1;" points="204.302,71.173 225.216,482.527 225.216,482.527 348.35,482.527 348.35,92.088 "/>
<polygon style="fill:#C7E5FF;" points="163.65,29.473 163.65,133.834 184.701,441.321 225.216,482.527 225.216,71.173 "/>
<polygon style="fill:#F7C02D;" points="40.652,134.328 61.566,482.527 61.567,482.527 184.701,482.527 184.701,155.243 "/>
<polygon style="fill:#FBE27B;" points="0,92.628 0,419.912 61.566,482.527 61.566,134.328 "/>
<polygon style="fill:#F39624;" points="0,92.628 0,92.628 61.566,155.243 184.701,155.243 123.134,92.628 "/>
<polygon style="fill:#288FD9;" points="348.35,92.088 348.35,92.088 286.784,29.473 163.65,29.473 163.65,29.473 225.216,92.088 "/>
</svg>