<?xml version="1.0" encoding="iso-8859-1"?>
<!-- Uploaded to: SVG Repo, www.svgrepo.com, Generator: SVG Repo Mixer Tools -->
<svg height="800px" width="800px" version="1.1" id="Layer_1" xmlns="http://www.w3.org/2000/svg" xmlns:xlink="http://www.w3.org/1999/xlink" 
	 viewBox="0 0 297 297" xml:space="preserve">
<g>
	<g>
		<g>
			<g>
				<circle style="fill:#D0D5D9;" cx="148.5" cy="148.5" r="148.5"/>
			</g>
		</g>
	</g>
	<path style="fill:#929DA5;" d="M257.678,125.514L39.48,171.647l124.551,124.546c69.602-7.234,124.915-62.541,132.16-132.14
		L257.678,125.514z"/>
	<g>
		<path style="fill:#86C867;" d="M234,181.5H63c-18.225,0-33-14.775-33-33l0,0c0-18.225,14.775-33,33-33h171
			c18.225,0,33,14.775,33,33l0,0C267,166.725,252.225,181.5,234,181.5z"/>
	</g>
	<g>
		<path style="fill:#6AAC4B;" d="M234,115.5h-86.5v66H234c18.225,0,33-14.775,33-33l0,0C267,130.275,252.225,115.5,234,115.5z"/>
	</g>
	<g>
		<circle style="fill:#32373B;" cx="66" cy="148.5" r="16.5"/>
	</g>
	<g>
		<circle style="fill:#32373B;" cx="115.5" cy="148.5" r="16.5"/>
	</g>
	<g>
		<circle style="fill:#32373B;" cx="165" cy="148.5" r="16.5"/>
	</g>
	<g>
		<path style="fill:#32373B;" d="M233.5,163.5h-30c-2.209,0-4-1.791-4-4s1.791-4,4-4h30c2.209,0,4,1.791,4,4
			S235.709,163.5,233.5,163.5z"/>
	</g>
</g>
</svg>